PathFileType	4	(X/Y/Z)	/Users/itak/Documents/Research/Walk-IL/dataset/trc/00298_00010.trc
DataRate	CameraRate	NumFrames	NumMarkers	Units	OrigDataRate	OrigDataStartFrame	OrigNumFrames
100.000000	100.000000	4	55	mm	100.000000	111	297
Frame#	Time	RPSI			LPSI			L3			STRN			T10			C7			CLAV			RBAK			LBAK			LSHO			LUPA			LAEL			LAOL			LWPS			LFRA			LIFD			LHPS			LHTS			RSHO			RUPA			RAEL			RAOL			RWTS			RWPS			RFRA			RIFD			RHTS			RHPS			RBHD			LFHD			RFHD			LBHD			RASI			LASI			LKNE			LTHI			LANK			LTIP			LTOE			LMT1			LMT5			LHEE			RKNE			RTHI			RANK			RTIP			RTOE			RMT1			RMT5			LWTS			RHEE			LHIP			RHIP			*53			*54			
		X1	Y1	Z1	X2	Y2	Z2	X3	Y3	Z3	X4	Y4	Z4	X5	Y5	Z5	X6	Y6	Z6	X7	Y7	Z7	X8	Y8	Z8	X9	Y9	Z9	X10	Y10	Z10	X11	Y11	Z11	X12	Y12	Z12	X13	Y13	Z13	X14	Y14	Z14	X15	Y15	Z15	X16	Y16	Z16	X17	Y17	Z17	X18	Y18	Z18	X19	Y19	Z19	X20	Y20	Z20	X21	Y21	Z21	X22	Y22	Z22	X23	Y23	Z23	X24	Y24	Z24	X25	Y25	Z25	X26	Y26	Z26	X27	Y27	Z27	X28	Y28	Z28	X29	Y29	Z29	X30	Y30	Z30	X31	Y31	Z31	X32	Y32	Z32	X33	Y33	Z33	X34	Y34	Z34	X35	Y35	Z35	X36	Y36	Z36	X37	Y37	Z37	X38	Y38	Z38	X39	Y39	Z39	X40	Y40	Z40	X41	Y41	Z41	X42	Y42	Z42	X43	Y43	Z43	X44	Y44	Z44	X45	Y45	Z45	X46	Y46	Z46	X47	Y47	Z47	X48	Y48	Z48	X49	Y49	Z49	X50	Y50	Z50	X51	Y51	Z51	X52	Y52	Z52	X53	Y53	Z53	X54	Y54	Z54	X55	Y55	Z55	

112	1.11	-188.3113861083984	995.84130859375	575.9151611328125	-286.8115844726562	970.1130981445312	432.388916015625	-227.7330322265625	1051.234252929688	486.2380065917969	-23.66887283325195	1227.12548828125	341.9184265136719	-241.3140258789062	1168.209838867188	490.3398132324219	-211.6063995361328	1413.339477539062	449.9188537597656	-78.01997375488281	1327.79150390625	373.1588134765625	-213.4275207519531	1276.424194335938	543.697509765625	-281.2334594726562	1376.23779296875	370.405029296875	-231.9390106201172	1381.792114257812	277.9388122558594	-298.3565673828125	1267.50244140625	229.3546447753906	-315.5127258300781	1065.01904296875	213.1532592773438	-341.8635559082031	1055.1884765625	295.1060791015625	-320.9645385742188	828.0403442382812	188.6369323730469	-322.4323425292969	960.9771728515625	201.2289428710938	-312.4841003417969	649.3837280273438	242.2685852050781	-338.3794250488281	740.8682250976562	193.5932769775391	-276.9946594238281	727.7974243164062	214.9641418457031	-68.13571929931641	1391.03955078125	547.782470703125	-37.3730354309082	1336.247802734375	610.1585083007812	-11.87816619873047	1073.102661132812	673.430419921875	-86.633544921875	1058.644653320312	612.5706787109375	62.82070159912109	849.2243041992188	588.5181884765625	55.53239440917969	846.5443115234375	673.7356567382812	16.32345199584961	1005.895263671875	675.37353515625	89.27687835693359	662.7569580078125	599.15087890625	105.8135147094727	736.3696899414062	598.64501953125	82.26009368896484	737.5209350585938	665.1044921875	-130.3907623291016	1582.103271484375	493.8265686035156	-81.97555541992188	1599.208618164062	286.7503051757812	-21.15409851074219	1600.482299804688	356.914794921875	-228.3759765625	1569.607421875	381.8902587890625	9.751810073852539	951.264892578125	478.0770568847656	-143.0997161865234	927.4232788085938	278.232177734375	-156.0784149169922	456.9255981445312	277.7253723144531	-189.3736419677734	593.5365600585938	277.9179382324219	-452.8685913085938	217.6013793945312	492.9014282226562	-306.1759948730469	325.01806640625	377.3440246582031	-349.7500305175781	38.5876350402832	537.4684448242188	-368.8704833984375	103.6016235351562	580.7061157226562	-417.9095764160156	99.63283538818359	479.6104125976562	-444.2161560058594	263.9675598144531	551.3281860351562	30.61512565612793	487.5190124511719	518.867431640625	29.14297676086426	748.4707641601562	557.8446655273438	-30.76499366760254	42.81124114990234	571.7940673828125	34.93630599975586	360.5380859375	506.1336059570312	59.75637054443359	40.01141357421875	389.7657165527344	-8.528643608093262	39.08978271484375	407.6864318847656	52.26725769042969	31.6113166809082	508.7787170410156	-266.5365600585938	828.395263671875	235.7957458496094	-102.0941314697266	39.89165878295898	577.8728637695312	-282.8384399414062	912.7203979492188	318.6648254394531	-41.90605545043945	955.4918823242188	602.1550903320312	nan	nan	nan	nan	nan	nan	
113	1.12	-179.9115295410156	996.2619018554688	572.45068359375	-279.9300842285156	970.572509765625	430.0165710449219	-220.0885009765625	1051.796997070312	483.8016967773438	-17.78813552856445	1227.431396484375	335.8550415039062	-232.8195648193359	1169.357055664062	488.4117736816406	-202.9169464111328	1414.379516601562	446.9835510253906	-71.31024932861328	1328.12548828125	367.8941040039062	-203.6997985839844	1277.710571289062	541.091064453125	-274.2843933105469	1377.316284179688	369.0079650878906	-226.8182525634766	1382.611572265625	275.5082397460938	-295.8868408203125	1268.96875	228.9586639404297	-315.8840942382812	1066.75830078125	213.0602416992188	-339.8363037109375	1057.085693359375	295.6982116699219	-322.0889587402344	829.8346557617188	187.9003295898438	-323.5008544921875	962.6114501953125	201.1262817382812	-310.1459045410156	650.8565673828125	239.1231536865234	-338.6953125	742.6262817382812	192.6755981445312	-276.450439453125	729.9771728515625	211.5369567871094	-57.97003936767578	1391.714721679688	542.3139038085938	-26.21584892272949	1336.893432617188	604.2237548828125	2.94908881187439	1073.801025390625	666.8184204101562	-73.36983489990234	1058.486328125	607.8796997070312	79.29436492919922	852.0488891601562	578.117919921875	73.81075286865234	848.3060302734375	663.4721069335938	31.94627571105957	1006.856689453125	667.7677001953125	109.3814926147461	665.9854125976562	586.4497680664062	124.7624206542969	739.9361572265625	586.291748046875	102.5127029418945	740.0435180664062	653.229736328125	-120.7907180786133	1582.830810546875	489.2080078125	-75.09166717529297	1599.649780273438	281.4920959472656	-13.31319618225098	1600.7890625	350.8861999511719	-220.1618957519531	1570.606689453125	378.6208190917969	17.30460548400879	951.82763671875	472.5411987304688	-137.7471008300781	928.7930297851562	274.4140014648438	-139.8340759277344	460.1108703613281	267.7422790527344	-177.0597686767578	595.8990478515625	270.225341796875	-432.1827087402344	217.0518951416016	486.1380004882812	-287.1385498046875	326.6313781738281	368.5047302246094	-322.9294128417969	39.84235000610352	522.7557373046875	-343.1316528320312	102.6808624267578	568.527099609375	-393.5990600585938	101.1863021850586	468.1786193847656	-423.9903869628906	261.8351135253906	545.726318359375	34.32468795776367	486.6737060546875	515.7615356445312	36.36780166625977	748.1408081054688	552.0970458984375	-30.91543579101562	43.18288421630859	571.4600830078125	37.21909713745117	359.601318359375	503.7381591796875	59.74839401245117	39.85071182250977	389.5180358886719	-8.666560173034668	38.83559036254883	407.4123840332031	52.09815216064453	31.73307037353516	508.5567016601562	-266.350830078125	830.322021484375	233.3569793701172	-102.1865921020508	40.06691360473633	577.607666015625	-277.2578125	913.7704467773438	315.92626953125	-33.30280685424805	955.8033447265625	597.25	nan	nan	nan	nan	nan	nan	
114	1.13	-171.6099548339844	996.5926513671875	568.9334106445312	-273.1135559082031	971.0296630859375	427.6290283203125	-212.5381164550781	1052.416137695312	481.3197631835938	-12.05611324310303	1227.818481445312	329.8003234863281	-224.4742431640625	1170.474365234375	486.4481201171875	-194.3550567626953	1415.379028320312	444.0266418457031	-64.78984069824219	1328.526977539062	362.6323852539062	-194.0893249511719	1278.973876953125	538.433349609375	-267.4456176757812	1378.392944335938	367.6267395019531	-221.8409576416016	1383.482055664062	273.1276245117188	-293.5172729492188	1270.495727539062	228.7268676757812	-316.3089599609375	1068.586059570312	213.3177032470703	-337.5174865722656	1059.002807617188	296.6297302246094	-323.1817321777344	831.7005004882812	187.3607025146484	-324.5765380859375	964.3487548828125	201.3390655517578	-307.2467346191406	652.4186401367188	235.7626495361328	-338.8221130371094	744.4253540039062	191.9476318359375	-275.6610107421875	732.2992553710938	207.7942962646484	-48.00760650634766	1392.38232421875	536.7853393554688	-15.30890560150146	1337.535400390625	598.2017211914062	17.48555374145508	1074.512573242188	659.9473266601562	-60.19312286376953	1058.269775390625	602.8053588867188	95.60841369628906	855.0440063476562	567.3799438476562	91.91872406005859	850.2567138671875	652.8117065429688	47.35125350952148	1007.892639160156	659.878662109375	129.2525482177734	669.4647216796875	573.3734741210938	143.4628448486328	743.7241821289062	573.5580444335938	122.560661315918	742.8143920898438	640.9473266601562	-111.3327941894531	1583.569702148438	484.4573059082031	-68.31910705566406	1599.977905273438	276.1409606933594	-5.593842506408691	1600.970336914062	344.7472229003906	-212.0344696044922	1571.625610351562	375.2620849609375	24.75514221191406	952.3914794921875	466.9612121582031	-132.5176239013672	930.24169921875	270.6045227050781	-123.9012069702148	463.5401000976562	257.8211975097656	-164.8835296630859	598.50927734375	262.4294738769531	-411.0029296875	215.0596008300781	478.8251037597656	-268.1103820800781	327.5212707519531	359.3929443359375	-294.8997802734375	40.84785461425781	507.4171447753906	-316.5462341308594	100.9814224243164	555.7166748046875	-368.3108215332031	101.7971038818359	456.1491394042969	-403.577392578125	258.1883239746094	539.5939331054688	37.90272903442383	485.8112182617188	512.8329467773438	43.38614273071289	747.687255859375	546.5419311523438	-31.02797508239746	43.52138900756836	571.1867065429688	39.44215393066406	358.6961364746094	501.5227355957031	59.75603866577148	39.72968292236328	389.3175964355469	-8.792455673217773	38.607666015625	407.17333984375	51.95936965942383	31.84916877746582	508.3726196289062	-265.9104919433594	832.4005737304688	230.6839904785156	-102.2228012084961	40.2382698059082	577.3656005859375	-271.7730407714844	914.8846435546875	313.1474914550781	-24.93262672424316	956.056396484375	592.4678955078125	nan	nan	nan	nan	nan	nan	
115	1.14	-163.4053649902344	996.8419799804688	565.3631591796875	-266.3746948242188	971.4432983398438	425.2219848632812	-205.0405731201172	1053.078735351562	478.7966003417969	-6.463511943817139	1228.282592773438	323.7594604492188	-216.2641296386719	1171.549926757812	484.4188537597656	-185.9440155029297	1416.324951171875	441.0474243164062	-58.44179153442383	1329.00341796875	357.3860778808594	-184.581787109375	1280.191040039062	535.7168579101562	-260.6919555664062	1379.456420898438	366.2444763183594	-216.9953918457031	1384.394409179688	270.7940979003906	-291.1702880859375	1272.07080078125	228.6207122802734	-316.6880798339844	1070.489379882812	213.8980102539062	-334.8587951660156	1060.924072265625	297.8453979492188	-324.1746826171875	833.6261596679688	187.0089569091797	-325.5639343261719	966.1812744140625	201.8386383056641	-303.9579772949219	654.088134765625	232.2692260742188	-338.7465209960938	746.2621459960938	191.4031829833984	-274.708740234375	734.7228393554688	203.8379516601562	-38.23960113525391	1393.041259765625	531.1976928710938	-4.632423400878906	1338.174438476562	592.0908203125	31.69755554199219	1075.240844726562	652.8367309570312	-47.09177780151367	1058.027709960938	597.335693359375	111.7400512695312	858.2288818359375	556.3178100585938	109.8205642700195	852.4005737304688	641.76806640625	62.51144409179688	1009.007751464844	651.7152709960938	148.8800048828125	673.21826171875	559.89990234375	161.8876190185547	747.7554931640625	560.44970703125	142.3636627197266	745.838134765625	628.2532348632812	-102.0290451049805	1584.307373046875	479.58447265625	-61.66609954833984	1600.19091796875	270.7070617675781	1.993013858795166	1601.02392578125	338.5089416503906	-204.0152282714844	1572.645874023438	371.8113098144531	32.11002731323242	952.9419555664062	461.3556518554688	-127.3929443359375	931.7274780273438	266.8109436035156	-108.3579711914062	467.1552734375	247.9761199951172	-152.8983001708984	601.3216552734375	254.5599517822266	-389.3464050292969	211.6564636230469	470.8901062011719	-249.181884765625	327.6431884765625	349.95556640625	-265.9136657714844	41.61875534057617	491.53955078125	-289.2514953613281	98.6112060546875	542.2900390625	-342.249267578125	101.5038452148438	443.5538330078125	-382.9337463378906	253.0676116943359	532.8203125	41.35527038574219	484.9534606933594	510.114501953125	50.16710662841797	747.1604614257812	541.2322998046875	-31.1102466583252	43.82223129272461	570.9801025390625	41.61029052734375	357.8374633789062	499.5139770507812	59.77472686767578	39.63876342773438	389.163330078125	-8.901181221008301	38.40880966186523	406.9727783203125	51.8521614074707	31.95743370056152	508.2259216308594	-265.2036437988281	834.6089477539062	227.7892608642578	-102.2142944335938	40.4276123046875	577.1544189453125	-266.3592529296875	915.9852294921875	310.3316955566406	-16.74781608581543	956.2537841796875	587.7520751953125	nan	nan	nan	nan	nan	nan	
